# xmcd
#
# Track frame offsets:
#	150
#	14056
#	27694
#	40989
#	56782
#	71072
#	83846
#	95713
#	106661
#	117844
#
# Disc length: 1744 seconds
#
# Revision: 1
# Processed by: cddbd v1.5.2PL0 Copyright (c) Steve Scherf et al.
# Submitted via: audiograbber 1.83.01
#
DISCID=8b06ce0a
DTITLE=Kenny Rogers - Every Time Two Fools Collide
DYEAR=1978
DGENRE=Country
TTITLE0=Every Time Two Fools Collide
TTITLE1=You And Me
TTITLE2=What's Wrong With Us Today
TTITLE3=Beautiful Lies
TTITLE4=That's The Way It Could Have Been
TTITLE5=Why Don't We Go Somewhere And Love
TTITLE6=Baby I'm-A-Want You
TTITLE7=Anyone Who Isn't Me Tonight
TTITLE8=The Loving Gift
TTITLE9=We Love Each Other
EXTD=
EXTT0=
EXTT1=
EXTT2=
EXTT3=
EXTT4=
EXTT5=
EXTT6=
EXTT7=
EXTT8=
EXTT9=
PLAYORDER=
